<?xml version="1.0" encoding="UTF-8"?>
<!DOCTYPE svg PUBLIC "-//W3C//DTD SVG 1.1//EN" "http://www.w3.org/Graphics/SVG/1.1/DTD/svg11.dtd">
<svg version="1.2" width="158.5mm" height="94.63mm" viewBox="3376 12302 15850 9463" preserveAspectRatio="xMidYMid" fill-rule="evenodd" stroke-width="28.222" stroke-linejoin="round" xmlns="http://www.w3.org/2000/svg" xmlns:ooo="http://xml.openoffice.org/svg/export" xmlns:xlink="http://www.w3.org/1999/xlink" xmlns:presentation="http://sun.com/xmlns/staroffice/presentation" xmlns:smil="http://www.w3.org/2001/SMIL20/" xmlns:anim="urn:oasis:names:tc:opendocument:xmlns:animation:1.0" xmlns:svg="urn:oasis:names:tc:opendocument:xmlns:svg-compatible:1.0" xml:space="preserve">
 <defs class="EmbeddedBulletChars">
  <g id="bullet-char-template-57356" transform="scale(0.00048828125,-0.00048828125)">
   <path d="M 580,1141 L 1163,571 580,0 -4,571 580,1141 Z"/>
  </g>
  <g id="bullet-char-template-57354" transform="scale(0.00048828125,-0.00048828125)">
   <path d="M 8,1128 L 1137,1128 1137,0 8,0 8,1128 Z"/>
  </g>
  <g id="bullet-char-template-10146" transform="scale(0.00048828125,-0.00048828125)">
   <path d="M 174,0 L 602,739 174,1481 1456,739 174,0 Z M 1358,739 L 309,1346 659,739 1358,739 Z"/>
  </g>
  <g id="bullet-char-template-10132" transform="scale(0.00048828125,-0.00048828125)">
   <path d="M 2015,739 L 1276,0 717,0 1260,543 174,543 174,936 1260,936 717,1481 1274,1481 2015,739 Z"/>
  </g>
  <g id="bullet-char-template-10007" transform="scale(0.00048828125,-0.00048828125)">
   <path d="M 0,-2 C -7,14 -16,27 -25,37 L 356,567 C 262,823 215,952 215,954 215,979 228,992 255,992 264,992 276,990 289,987 310,991 331,999 354,1012 L 381,999 492,748 772,1049 836,1024 860,1049 C 881,1039 901,1025 922,1006 886,937 835,863 770,784 769,783 710,716 594,584 L 774,223 C 774,196 753,168 711,139 L 727,119 C 717,90 699,76 672,76 641,76 570,178 457,381 L 164,-76 C 142,-110 111,-127 72,-127 30,-127 9,-110 8,-76 1,-67 -2,-52 -2,-32 -2,-23 -1,-13 0,-2 Z"/>
  </g>
  <g id="bullet-char-template-10004" transform="scale(0.00048828125,-0.00048828125)">
   <path d="M 285,-33 C 182,-33 111,30 74,156 52,228 41,333 41,471 41,549 55,616 82,672 116,743 169,778 240,778 293,778 328,747 346,684 L 369,508 C 377,444 397,411 428,410 L 1163,1116 C 1174,1127 1196,1133 1229,1133 1271,1133 1292,1118 1292,1087 L 1292,965 C 1292,929 1282,901 1262,881 L 442,47 C 390,-6 338,-33 285,-33 Z"/>
  </g>
  <g id="bullet-char-template-9679" transform="scale(0.00048828125,-0.00048828125)">
   <path d="M 813,0 C 632,0 489,54 383,161 276,268 223,411 223,592 223,773 276,916 383,1023 489,1130 632,1184 813,1184 992,1184 1136,1130 1245,1023 1353,916 1407,772 1407,592 1407,412 1353,268 1245,161 1136,54 992,0 813,0 Z"/>
  </g>
  <g id="bullet-char-template-8226" transform="scale(0.00048828125,-0.00048828125)">
   <path d="M 346,457 C 273,457 209,483 155,535 101,586 74,649 74,723 74,796 101,859 155,911 209,963 273,989 346,989 419,989 480,963 531,910 582,859 608,796 608,723 608,648 583,586 532,535 482,483 420,457 346,457 Z"/>
  </g>
  <g id="bullet-char-template-8211" transform="scale(0.00048828125,-0.00048828125)">
   <path d="M -4,459 L 1135,459 1135,606 -4,606 -4,459 Z"/>
  </g>
  <g id="bullet-char-template-61548" transform="scale(0.00048828125,-0.00048828125)">
   <path d="M 173,740 C 173,903 231,1043 346,1159 462,1274 601,1332 765,1332 928,1332 1067,1274 1183,1159 1299,1043 1357,903 1357,740 1357,577 1299,437 1183,322 1067,206 928,148 765,148 601,148 462,206 346,322 231,437 173,577 173,740 Z"/>
  </g>
 </defs>
 <g class="Page">
  <g class="com.sun.star.drawing.CustomShape">
   <g id="id3">
    <rect class="BoundingBox" stroke="none" fill="none" x="3376" y="12302" width="15850" height="9463"/>
    <path fill="rgb(39,39,39)" stroke="none" d="M 5037,12429 L 5038,12429 C 4768,12429 4504,12500 4270,12635 4037,12769 3843,12963 3709,13196 3574,13430 3503,13694 3503,13964 L 3503,20102 3503,20102 C 3503,20372 3574,20636 3709,20870 3843,21103 4037,21297 4270,21431 4504,21566 4768,21637 5038,21637 L 17563,21637 17563,21637 C 17833,21637 18097,21566 18331,21431 18564,21297 18758,21103 18892,20870 19027,20636 19098,20372 19098,20102 L 19097,13963 19098,13964 19098,13964 C 19098,13694 19027,13430 18892,13196 18758,12963 18564,12769 18331,12635 18097,12500 17833,12429 17563,12429 L 5037,12429 Z"/>
    <path fill="none" stroke="rgb(169,163,163)" stroke-width="254" stroke-linejoin="round" d="M 5037,12429 L 5038,12429 C 4768,12429 4504,12500 4270,12635 4037,12769 3843,12963 3709,13196 3574,13430 3503,13694 3503,13964 L 3503,20102 3503,20102 C 3503,20372 3574,20636 3709,20870 3843,21103 4037,21297 4270,21431 4504,21566 4768,21637 5038,21637 L 17563,21637 17563,21637 C 17833,21637 18097,21566 18331,21431 18564,21297 18758,21103 18892,20870 19027,20636 19098,20372 19098,20102 L 19097,13963 19098,13964 19098,13964 C 19098,13694 19027,13430 18892,13196 18758,12963 18564,12769 18331,12635 18097,12500 17833,12429 17563,12429 L 5037,12429 Z"/>
   </g>
  </g>
  <g class="com.sun.star.drawing.CustomShape">
   <g id="id4">
    <rect class="BoundingBox" stroke="none" fill="none" x="5438" y="16868" width="1909" height="1909"/>
    <path fill="rgb(169,163,163)" stroke="none" d="M 7345,17822 C 7345,17989 7301,18154 7217,18299 7134,18443 7013,18564 6869,18647 6724,18731 6559,18775 6392,18775 6225,18775 6060,18731 5916,18647 5771,18564 5650,18443 5567,18299 5483,18154 5439,17989 5439,17822 5439,17655 5483,17490 5567,17346 5650,17201 5771,17080 5915,16997 6060,16913 6225,16869 6392,16869 6559,16869 6724,16913 6868,16997 7013,17080 7134,17201 7217,17346 7301,17490 7345,17655 7345,17822 L 7345,17822 Z"/>
    <path fill="none" stroke="rgb(169,163,163)" d="M 7345,17822 C 7345,17989 7301,18154 7217,18299 7134,18443 7013,18564 6869,18647 6724,18731 6559,18775 6392,18775 6225,18775 6060,18731 5916,18647 5771,18564 5650,18443 5567,18299 5483,18154 5439,17989 5439,17822 5439,17655 5483,17490 5567,17346 5650,17201 5771,17080 5915,16997 6060,16913 6225,16869 6392,16869 6559,16869 6724,16913 6868,16997 7013,17080 7134,17201 7217,17346 7301,17490 7345,17655 7345,17822 Z"/>
   </g>
  </g>
  <g class="com.sun.star.drawing.CustomShape">
   <g id="id5">
    <rect class="BoundingBox" stroke="none" fill="none" x="4493" y="19095" width="3817" height="2227"/>
    <path fill="rgb(169,163,163)" stroke="none" d="M 4494,20211 L 4494,20210 C 4494,20015 4581,19824 4748,19655 4915,19486 5155,19345 5444,19247 5734,19149 6062,19097 6397,19096 L 6397,19096 6397,19096 C 6731,19095 7060,19146 7350,19242 7640,19339 7881,19478 8048,19647 8216,19815 8305,20006 8305,20201 L 8308,21310 4497,21320 4494,20211 Z"/>
    <path fill="none" stroke="rgb(169,163,163)" d="M 4494,20211 L 4494,20210 C 4494,20015 4581,19824 4748,19655 4915,19486 5155,19345 5444,19247 5734,19149 6062,19097 6397,19096 L 6397,19096 6397,19096 C 6731,19095 7060,19146 7350,19242 7640,19339 7881,19478 8048,19647 8216,19815 8305,20006 8305,20201 L 8308,21310 4497,21320 4494,20211 Z"/>
   </g>
  </g>
  <g class="com.sun.star.drawing.LineShape">
   <g id="id6">
    <rect class="BoundingBox" stroke="none" fill="none" x="4486" y="20362" width="3813" height="3"/>
    <path fill="none" stroke="rgb(52,101,164)" d="M 4487,20363 L 8297,20363"/>
   </g>
  </g>
  <g class="com.sun.star.drawing.CustomShape">
   <g id="id7">
    <rect class="BoundingBox" stroke="none" fill="none" x="4416" y="20608" width="3963" height="470"/>
    <path fill="rgb(39,39,39)" stroke="none" d="M 6397,21001 L 4492,21001 4492,20684 8302,20684 8302,21001 6397,21001 Z"/>
    <path fill="none" stroke="rgb(39,39,39)" stroke-width="152" stroke-linejoin="round" d="M 6397,21001 L 4492,21001 4492,20684 8302,20684 8302,21001 6397,21001 Z"/>
   </g>
  </g>
  <g class="com.sun.star.drawing.CustomShape">
   <g id="id8">
    <rect class="BoundingBox" stroke="none" fill="none" x="15285" y="13380" width="1909" height="1909"/>
    <path fill="rgb(169,163,163)" stroke="none" d="M 17192,14334 C 17192,14501 17148,14666 17064,14811 16981,14955 16860,15076 16716,15159 16571,15243 16406,15287 16239,15287 16072,15287 15907,15243 15763,15159 15618,15076 15497,14955 15414,14811 15330,14666 15286,14501 15286,14334 15286,14167 15330,14002 15414,13858 15497,13713 15618,13592 15763,13509 15907,13425 16072,13381 16239,13381 16406,13381 16571,13425 16716,13509 16860,13592 16981,13713 17064,13858 17148,14002 17192,14167 17192,14334 L 17192,14334 Z"/>
    <path fill="none" stroke="rgb(169,163,163)" d="M 17192,14334 C 17192,14501 17148,14666 17064,14811 16981,14955 16860,15076 16716,15159 16571,15243 16406,15287 16239,15287 16072,15287 15907,15243 15763,15159 15618,15076 15497,14955 15414,14811 15330,14666 15286,14501 15286,14334 15286,14167 15330,14002 15414,13858 15497,13713 15618,13592 15763,13509 15907,13425 16072,13381 16239,13381 16406,13381 16571,13425 16716,13509 16860,13592 16981,13713 17064,13858 17148,14002 17192,14167 17192,14334 L 17192,14334 Z"/>
   </g>
  </g>
  <g class="com.sun.star.drawing.CustomShape">
   <g id="id9">
    <rect class="BoundingBox" stroke="none" fill="none" x="14331" y="15602" width="3817" height="2227"/>
    <path fill="rgb(169,163,163)" stroke="none" d="M 14332,16718 L 14332,16717 C 14332,16522 14419,16331 14586,16162 14753,15993 14993,15852 15282,15754 15572,15656 15900,15604 16235,15603 L 16235,15603 16235,15603 C 16569,15602 16898,15653 17188,15749 17478,15846 17719,15985 17886,16154 18054,16322 18143,16513 18143,16708 L 18146,17817 14335,17827 14332,16718 Z"/>
    <path fill="none" stroke="rgb(169,163,163)" d="M 14332,16718 L 14332,16717 C 14332,16522 14419,16331 14586,16162 14753,15993 14993,15852 15282,15754 15572,15656 15900,15604 16235,15603 L 16235,15603 16235,15603 C 16569,15602 16898,15653 17188,15749 17478,15846 17719,15985 17886,16154 18054,16322 18143,16513 18143,16708 L 18146,17817 14335,17827 14332,16718 Z"/>
   </g>
  </g>
  <g class="com.sun.star.drawing.CustomShape">
   <g id="id10">
    <rect class="BoundingBox" stroke="none" fill="none" x="14015" y="16874" width="4448" height="1273"/>
    <path fill="rgb(39,39,39)" stroke="none" d="M 16239,18145 L 14016,18145 14016,16875 18461,16875 18461,18145 16239,18145 Z"/>
    <path fill="none" stroke="rgb(39,39,39)" d="M 16239,18145 L 14016,18145 14016,16875 18461,16875 18461,18145 16239,18145 Z"/>
   </g>
  </g>
  <g class="com.sun.star.drawing.CustomShape">
   <g id="id11">
    <rect class="BoundingBox" stroke="none" fill="none" x="6395" y="13698" width="8259" height="321"/>
    <path fill="rgb(169,163,163)" stroke="none" d="M 6449,13699 L 6449,13699 C 6440,13699 6431,13701 6423,13706 6414,13711 6408,13717 6403,13726 6398,13734 6396,13743 6396,13752 L 6396,13964 6396,13964 C 6396,13973 6398,13982 6403,13991 6408,13999 6414,14005 6423,14010 6431,14015 6440,14017 6449,14017 L 14599,14017 14599,14017 C 14608,14017 14617,14015 14626,14010 14634,14005 14640,13999 14645,13991 14650,13982 14652,13973 14652,13964 L 14652,13752 14652,13752 14652,13752 C 14652,13743 14650,13734 14645,13726 14640,13717 14634,13711 14626,13706 14617,13701 14608,13699 14599,13699 L 6449,13699 Z"/>
    <path fill="none" stroke="rgb(169,163,163)" d="M 6449,13699 L 6449,13699 C 6440,13699 6431,13701 6423,13706 6414,13711 6408,13717 6403,13726 6398,13734 6396,13743 6396,13752 L 6396,13964 6396,13964 C 6396,13973 6398,13982 6403,13991 6408,13999 6414,14005 6423,14010 6431,14015 6440,14017 6449,14017 L 14599,14017 14599,14017 C 14608,14017 14617,14015 14626,14010 14634,14005 14640,13999 14645,13991 14650,13982 14652,13973 14652,13964 L 14652,13752 14652,13752 14652,13752 C 14652,13743 14650,13734 14645,13726 14640,13717 14634,13711 14626,13706 14617,13701 14608,13699 14599,13699 L 6449,13699 Z"/>
   </g>
  </g>
  <g class="com.sun.star.drawing.CustomShape">
   <g id="id12">
    <rect class="BoundingBox" stroke="none" fill="none" x="6078" y="13698" width="639" height="2860"/>
    <path fill="rgb(169,163,163)" stroke="none" d="M 6238,13699 L 6238,15842 6079,15842 6397,16556 6715,15842 6556,15842 6556,13699 6238,13699 Z"/>
    <path fill="none" stroke="rgb(169,163,163)" d="M 6238,13699 L 6238,15842 6079,15842 6397,16556 6715,15842 6556,15842 6556,13699 6238,13699 Z"/>
   </g>
  </g>
  <g class="com.sun.star.drawing.CustomShape">
   <g id="id13">
    <rect class="BoundingBox" stroke="none" fill="none" x="8935" y="20048" width="7307" height="321"/>
    <path fill="rgb(169,163,163)" stroke="none" d="M 8989,20049 L 8989,20049 C 8980,20049 8971,20051 8963,20056 8954,20061 8948,20067 8943,20076 8938,20084 8936,20093 8936,20102 L 8936,20314 8936,20314 C 8936,20323 8938,20332 8943,20341 8948,20349 8954,20355 8963,20360 8971,20365 8980,20367 8989,20367 L 16187,20367 16187,20367 C 16196,20367 16205,20365 16214,20360 16222,20355 16228,20349 16233,20341 16238,20332 16240,20323 16240,20314 L 16240,20102 16240,20102 16240,20102 C 16240,20093 16238,20084 16233,20076 16228,20067 16222,20061 16214,20056 16205,20051 16196,20049 16187,20049 L 8989,20049 Z"/>
    <path fill="none" stroke="rgb(169,163,163)" d="M 8989,20049 L 8989,20049 C 8980,20049 8971,20051 8963,20056 8954,20061 8948,20067 8943,20076 8938,20084 8936,20093 8936,20102 L 8936,20314 8936,20314 C 8936,20323 8938,20332 8943,20341 8948,20349 8954,20355 8963,20360 8971,20365 8980,20367 8989,20367 L 16187,20367 16187,20367 C 16196,20367 16205,20365 16214,20360 16222,20355 16228,20349 16233,20341 16238,20332 16240,20323 16240,20314 L 16240,20102 16240,20102 16240,20102 C 16240,20093 16238,20084 16233,20076 16228,20067 16222,20061 16214,20056 16205,20051 16196,20049 16187,20049 L 8989,20049 Z"/>
   </g>
  </g>
  <g class="com.sun.star.drawing.CustomShape">
   <g id="id14">
    <rect class="BoundingBox" stroke="none" fill="none" x="15933" y="17515" width="638" height="2863"/>
    <path fill="rgb(169,163,163)" stroke="none" d="M 16448,20370 L 16411,18227 16569,18225 16239,17516 15934,18236 16093,18233 16130,20376 16448,20370 Z"/>
    <path fill="none" stroke="rgb(169,163,163)" d="M 16448,20370 L 16411,18227 16569,18225 16239,17516 15934,18236 16093,18233 16130,20376 16448,20370 Z"/>
   </g>
  </g>
  <g class="com.sun.star.drawing.CustomShape">
   <g id="id15">
    <rect class="BoundingBox" stroke="none" fill="none" x="7030" y="14650" width="3179" height="321"/>
    <path fill="rgb(169,163,163)" stroke="none" d="M 7084,14651 L 7084,14651 C 7075,14651 7066,14653 7058,14658 7049,14663 7043,14669 7038,14678 7033,14686 7031,14695 7031,14704 L 7031,14916 7031,14916 C 7031,14925 7033,14934 7038,14943 7043,14951 7049,14957 7058,14962 7066,14967 7075,14969 7084,14969 L 10154,14969 10154,14969 C 10163,14969 10172,14967 10181,14962 10189,14957 10195,14951 10200,14943 10205,14934 10207,14925 10207,14916 L 10207,14704 10207,14704 10207,14704 C 10207,14695 10205,14686 10200,14678 10195,14669 10189,14663 10181,14658 10172,14653 10163,14651 10154,14651 L 7084,14651 Z"/>
    <path fill="none" stroke="rgb(169,163,163)" d="M 7084,14651 L 7084,14651 C 7075,14651 7066,14653 7058,14658 7049,14663 7043,14669 7038,14678 7033,14686 7031,14695 7031,14704 L 7031,14916 7031,14916 C 7031,14925 7033,14934 7038,14943 7043,14951 7049,14957 7058,14962 7066,14967 7075,14969 7084,14969 L 10154,14969 10154,14969 C 10163,14969 10172,14967 10181,14962 10189,14957 10195,14951 10200,14943 10205,14934 10207,14925 10207,14916 L 10207,14704 10207,14704 10207,14704 C 10207,14695 10205,14686 10200,14678 10195,14669 10189,14663 10181,14658 10172,14653 10163,14651 10154,14651 L 7084,14651 Z"/>
   </g>
  </g>
  <g class="com.sun.star.drawing.CustomShape">
   <g id="id16">
    <rect class="BoundingBox" stroke="none" fill="none" x="7030" y="15603" width="4449" height="321"/>
    <path fill="rgb(169,163,163)" stroke="none" d="M 7084,15604 L 7084,15604 C 7075,15604 7066,15606 7057,15611 7049,15616 7043,15622 7038,15630 7033,15639 7031,15648 7031,15657 L 7031,15869 7031,15869 C 7031,15878 7033,15887 7038,15896 7043,15904 7049,15910 7057,15915 7066,15920 7075,15922 7084,15922 L 11424,15922 11424,15922 C 11433,15922 11442,15920 11451,15915 11459,15910 11465,15904 11470,15896 11475,15887 11477,15878 11477,15869 L 11477,15657 11477,15657 11477,15657 C 11477,15648 11475,15639 11470,15630 11465,15622 11459,15616 11451,15611 11442,15606 11433,15604 11424,15604 L 7084,15604 Z"/>
    <path fill="none" stroke="rgb(169,163,163)" d="M 7084,15604 L 7084,15604 C 7075,15604 7066,15606 7057,15611 7049,15616 7043,15622 7038,15630 7033,15639 7031,15648 7031,15657 L 7031,15869 7031,15869 C 7031,15878 7033,15887 7038,15896 7043,15904 7049,15910 7057,15915 7066,15920 7075,15922 7084,15922 L 11424,15922 11424,15922 C 11433,15922 11442,15920 11451,15915 11459,15910 11465,15904 11470,15896 11475,15887 11477,15878 11477,15869 L 11477,15657 11477,15657 11477,15657 C 11477,15648 11475,15639 11470,15630 11465,15622 11459,15616 11451,15611 11442,15606 11433,15604 11424,15604 L 7084,15604 Z"/>
   </g>
  </g>
  <g class="com.sun.star.drawing.CustomShape">
   <g id="id17">
    <rect class="BoundingBox" stroke="none" fill="none" x="12428" y="17826" width="3179" height="321"/>
    <path fill="rgb(169,163,163)" stroke="none" d="M 12482,17827 L 12482,17827 C 12473,17827 12464,17829 12456,17834 12447,17839 12441,17845 12436,17854 12431,17862 12429,17871 12429,17880 L 12429,18092 12429,18092 C 12429,18101 12431,18110 12436,18119 12441,18127 12447,18133 12456,18138 12464,18143 12473,18145 12482,18145 L 15552,18145 15552,18145 C 15561,18145 15570,18143 15579,18138 15587,18133 15593,18127 15598,18119 15603,18110 15605,18101 15605,18092 L 15605,17880 15605,17880 15605,17880 C 15605,17871 15603,17862 15598,17854 15593,17845 15587,17839 15579,17834 15570,17829 15561,17827 15552,17827 L 12482,17827 Z"/>
    <path fill="none" stroke="rgb(169,163,163)" d="M 12482,17827 L 12482,17827 C 12473,17827 12464,17829 12456,17834 12447,17839 12441,17845 12436,17854 12431,17862 12429,17871 12429,17880 L 12429,18092 12429,18092 C 12429,18101 12431,18110 12436,18119 12441,18127 12447,18133 12456,18138 12464,18143 12473,18145 12482,18145 L 15552,18145 15552,18145 C 15561,18145 15570,18143 15579,18138 15587,18133 15593,18127 15598,18119 15603,18110 15605,18101 15605,18092 L 15605,17880 15605,17880 15605,17880 C 15605,17871 15603,17862 15598,17854 15593,17845 15587,17839 15579,17834 15570,17829 15561,17827 15552,17827 L 12482,17827 Z"/>
   </g>
  </g>
  <g class="com.sun.star.drawing.CustomShape">
   <g id="id18">
    <rect class="BoundingBox" stroke="none" fill="none" x="11158" y="18778" width="4449" height="321"/>
    <path fill="rgb(169,163,163)" stroke="none" d="M 11212,18779 L 11212,18779 C 11203,18779 11194,18781 11186,18786 11177,18791 11171,18797 11166,18806 11161,18814 11159,18823 11159,18832 L 11159,19044 11159,19044 C 11159,19053 11161,19062 11166,19070 11171,19079 11177,19085 11186,19090 11194,19095 11203,19097 11212,19097 L 15552,19097 15552,19097 C 15561,19097 15570,19095 15579,19090 15587,19085 15593,19079 15598,19070 15603,19062 15605,19053 15605,19044 L 15605,18832 15605,18832 15605,18832 C 15605,18823 15603,18814 15598,18806 15593,18797 15587,18791 15579,18786 15570,18781 15561,18779 15552,18779 L 11212,18779 Z"/>
    <path fill="none" stroke="rgb(169,163,163)" d="M 11212,18779 L 11212,18779 C 11203,18779 11194,18781 11186,18786 11177,18791 11171,18797 11166,18806 11161,18814 11159,18823 11159,18832 L 11159,19044 11159,19044 C 11159,19053 11161,19062 11166,19070 11171,19079 11177,19085 11186,19090 11194,19095 11203,19097 11212,19097 L 15552,19097 15552,19097 C 15561,19097 15570,19095 15579,19090 15587,19085 15593,19079 15598,19070 15603,19062 15605,19053 15605,19044 L 15605,18832 15605,18832 15605,18832 C 15605,18823 15603,18814 15598,18806 15593,18797 15587,18791 15579,18786 15570,18781 15561,18779 15552,18779 L 11212,18779 Z"/>
   </g>
  </g>
  <g class="com.sun.star.drawing.CustomShape">
   <g id="id19">
    <rect class="BoundingBox" stroke="none" fill="none" x="4416" y="20292" width="3963" height="1105"/>
    <path fill="rgb(39,39,39)" stroke="none" d="M 6397,21320 L 4492,21320 4492,20368 8302,20368 8302,21320 6397,21320 Z"/>
    <path fill="none" stroke="rgb(39,39,39)" stroke-width="152" stroke-linejoin="round" d="M 6397,21320 L 4492,21320 4492,20368 8302,20368 8302,21320 6397,21320 Z"/>
   </g>
  </g>
 </g>
</svg>