<?xml version="1.0" encoding="UTF-8"?>
<!DOCTYPE svg PUBLIC "-//W3C//DTD SVG 1.1//EN" "http://www.w3.org/Graphics/SVG/1.1/DTD/svg11.dtd">
<svg version="1.2" width="158.5mm" height="94.63mm" viewBox="3059 1825 15850 9463" preserveAspectRatio="xMidYMid" fill-rule="evenodd" stroke-width="28.222" stroke-linejoin="round" xmlns="http://www.w3.org/2000/svg" xmlns:ooo="http://xml.openoffice.org/svg/export" xmlns:xlink="http://www.w3.org/1999/xlink" xmlns:presentation="http://sun.com/xmlns/staroffice/presentation" xmlns:smil="http://www.w3.org/2001/SMIL20/" xmlns:anim="urn:oasis:names:tc:opendocument:xmlns:animation:1.0" xmlns:svg="urn:oasis:names:tc:opendocument:xmlns:svg-compatible:1.0" xml:space="preserve">
 <defs class="EmbeddedBulletChars">
  <g id="bullet-char-template-57356" transform="scale(0.00048828125,-0.00048828125)">
   <path d="M 580,1141 L 1163,571 580,0 -4,571 580,1141 Z"/>
  </g>
  <g id="bullet-char-template-57354" transform="scale(0.00048828125,-0.00048828125)">
   <path d="M 8,1128 L 1137,1128 1137,0 8,0 8,1128 Z"/>
  </g>
  <g id="bullet-char-template-10146" transform="scale(0.00048828125,-0.00048828125)">
   <path d="M 174,0 L 602,739 174,1481 1456,739 174,0 Z M 1358,739 L 309,1346 659,739 1358,739 Z"/>
  </g>
  <g id="bullet-char-template-10132" transform="scale(0.00048828125,-0.00048828125)">
   <path d="M 2015,739 L 1276,0 717,0 1260,543 174,543 174,936 1260,936 717,1481 1274,1481 2015,739 Z"/>
  </g>
  <g id="bullet-char-template-10007" transform="scale(0.00048828125,-0.00048828125)">
   <path d="M 0,-2 C -7,14 -16,27 -25,37 L 356,567 C 262,823 215,952 215,954 215,979 228,992 255,992 264,992 276,990 289,987 310,991 331,999 354,1012 L 381,999 492,748 772,1049 836,1024 860,1049 C 881,1039 901,1025 922,1006 886,937 835,863 770,784 769,783 710,716 594,584 L 774,223 C 774,196 753,168 711,139 L 727,119 C 717,90 699,76 672,76 641,76 570,178 457,381 L 164,-76 C 142,-110 111,-127 72,-127 30,-127 9,-110 8,-76 1,-67 -2,-52 -2,-32 -2,-23 -1,-13 0,-2 Z"/>
  </g>
  <g id="bullet-char-template-10004" transform="scale(0.00048828125,-0.00048828125)">
   <path d="M 285,-33 C 182,-33 111,30 74,156 52,228 41,333 41,471 41,549 55,616 82,672 116,743 169,778 240,778 293,778 328,747 346,684 L 369,508 C 377,444 397,411 428,410 L 1163,1116 C 1174,1127 1196,1133 1229,1133 1271,1133 1292,1118 1292,1087 L 1292,965 C 1292,929 1282,901 1262,881 L 442,47 C 390,-6 338,-33 285,-33 Z"/>
  </g>
  <g id="bullet-char-template-9679" transform="scale(0.00048828125,-0.00048828125)">
   <path d="M 813,0 C 632,0 489,54 383,161 276,268 223,411 223,592 223,773 276,916 383,1023 489,1130 632,1184 813,1184 992,1184 1136,1130 1245,1023 1353,916 1407,772 1407,592 1407,412 1353,268 1245,161 1136,54 992,0 813,0 Z"/>
  </g>
  <g id="bullet-char-template-8226" transform="scale(0.00048828125,-0.00048828125)">
   <path d="M 346,457 C 273,457 209,483 155,535 101,586 74,649 74,723 74,796 101,859 155,911 209,963 273,989 346,989 419,989 480,963 531,910 582,859 608,796 608,723 608,648 583,586 532,535 482,483 420,457 346,457 Z"/>
  </g>
  <g id="bullet-char-template-8211" transform="scale(0.00048828125,-0.00048828125)">
   <path d="M -4,459 L 1135,459 1135,606 -4,606 -4,459 Z"/>
  </g>
  <g id="bullet-char-template-61548" transform="scale(0.00048828125,-0.00048828125)">
   <path d="M 173,740 C 173,903 231,1043 346,1159 462,1274 601,1332 765,1332 928,1332 1067,1274 1183,1159 1299,1043 1357,903 1357,740 1357,577 1299,437 1183,322 1067,206 928,148 765,148 601,148 462,206 346,322 231,437 173,577 173,740 Z"/>
  </g>
 </defs>
 <g class="Page">
  <g class="com.sun.star.drawing.CustomShape">
   <g id="id3">
    <rect class="BoundingBox" stroke="none" fill="none" x="3059" y="1825" width="15850" height="9463"/>
    <path fill="rgb(39,39,39)" stroke="none" d="M 4720,1952 L 4721,1952 C 4451,1952 4187,2023 3953,2158 3720,2292 3526,2486 3392,2719 3257,2953 3186,3217 3186,3487 L 3186,9625 3186,9625 C 3186,9895 3257,10159 3392,10393 3526,10626 3720,10820 3953,10954 4187,11089 4451,11160 4721,11160 L 17246,11160 17246,11160 C 17516,11160 17780,11089 18014,10954 18247,10820 18441,10626 18575,10393 18710,10159 18781,9895 18781,9625 L 18780,3486 18781,3487 18781,3487 C 18781,3217 18710,2953 18575,2719 18441,2486 18247,2292 18014,2158 17780,2023 17516,1952 17246,1952 L 4720,1952 Z"/>
    <path fill="none" stroke="rgb(169,163,163)" stroke-width="254" stroke-linejoin="round" d="M 4720,1952 L 4721,1952 C 4451,1952 4187,2023 3953,2158 3720,2292 3526,2486 3392,2719 3257,2953 3186,3217 3186,3487 L 3186,9625 3186,9625 C 3186,9895 3257,10159 3392,10393 3526,10626 3720,10820 3953,10954 4187,11089 4451,11160 4721,11160 L 17246,11160 17246,11160 C 17516,11160 17780,11089 18014,10954 18247,10820 18441,10626 18575,10393 18710,10159 18781,9895 18781,9625 L 18780,3486 18781,3487 18781,3487 C 18781,3217 18710,2953 18575,2719 18441,2486 18247,2292 18014,2158 17780,2023 17516,1952 17246,1952 L 4720,1952 Z"/>
   </g>
  </g>
  <g class="com.sun.star.drawing.CustomShape">
   <g id="id4">
    <rect class="BoundingBox" stroke="none" fill="none" x="8861" y="9179" width="3963" height="1105"/>
    <path fill="rgb(39,39,39)" stroke="none" d="M 10842,10207 L 8937,10207 8937,9255 12747,9255 12747,10207 10842,10207 Z"/>
    <path fill="none" stroke="rgb(39,39,39)" stroke-width="152" stroke-linejoin="round" d="M 10842,10207 L 8937,10207 8937,9255 12747,9255 12747,10207 10842,10207 Z"/>
   </g>
  </g>
  <g class="com.sun.star.drawing.CustomShape">
   <g id="id5">
    <rect class="BoundingBox" stroke="none" fill="none" x="13063" y="4173" width="1909" height="1909"/>
    <path fill="rgb(169,163,163)" stroke="none" d="M 14970,5127 C 14970,5294 14926,5459 14842,5604 14759,5748 14638,5869 14494,5952 14349,6036 14184,6080 14017,6080 13850,6080 13685,6036 13541,5952 13396,5869 13275,5748 13192,5604 13108,5459 13064,5294 13064,5127 13064,4960 13108,4795 13192,4651 13275,4506 13396,4385 13541,4302 13685,4218 13850,4174 14017,4174 14184,4174 14349,4218 14494,4302 14638,4385 14759,4506 14842,4650 14926,4795 14970,4960 14970,5127 L 14970,5127 Z"/>
    <path fill="none" stroke="rgb(169,163,163)" d="M 14970,5127 C 14970,5294 14926,5459 14842,5604 14759,5748 14638,5869 14494,5952 14349,6036 14184,6080 14017,6080 13850,6080 13685,6036 13541,5952 13396,5869 13275,5748 13192,5604 13108,5459 13064,5294 13064,5127 13064,4960 13108,4795 13192,4651 13275,4506 13396,4385 13541,4302 13685,4218 13850,4174 14017,4174 14184,4174 14349,4218 14494,4302 14638,4385 14759,4506 14842,4650 14926,4795 14970,4960 14970,5127 L 14970,5127 Z"/>
   </g>
  </g>
  <g class="com.sun.star.drawing.CustomShape">
   <g id="id6">
    <rect class="BoundingBox" stroke="none" fill="none" x="6718" y="4173" width="1909" height="1909"/>
    <path fill="rgb(169,163,163)" stroke="none" d="M 8625,5127 C 8625,5294 8581,5459 8497,5604 8414,5748 8293,5869 8149,5952 8004,6036 7839,6080 7672,6080 7505,6080 7340,6036 7196,5952 7051,5869 6930,5748 6847,5604 6763,5459 6719,5294 6719,5127 6719,4960 6763,4795 6847,4651 6930,4506 7051,4385 7195,4302 7340,4218 7505,4174 7672,4174 7839,4174 8004,4218 8148,4302 8293,4385 8414,4506 8497,4650 8581,4795 8625,4960 8625,5127 L 8625,5127 Z"/>
    <path fill="none" stroke="rgb(169,163,163)" d="M 8625,5127 C 8625,5294 8581,5459 8497,5604 8414,5748 8293,5869 8149,5952 8004,6036 7839,6080 7672,6080 7505,6080 7340,6036 7196,5952 7051,5869 6930,5748 6847,5604 6763,5459 6719,5294 6719,5127 6719,4960 6763,4795 6847,4651 6930,4506 7051,4385 7195,4302 7340,4218 7505,4174 7672,4174 7839,4174 8004,4218 8148,4302 8293,4385 8414,4506 8497,4650 8581,4795 8625,4960 8625,5127 L 8625,5127 Z"/>
   </g>
  </g>
  <g class="com.sun.star.drawing.CustomShape">
   <g id="id7">
    <rect class="BoundingBox" stroke="none" fill="none" x="9888" y="2585" width="1909" height="1909"/>
    <path fill="rgb(169,163,163)" stroke="none" d="M 11795,3539 C 11795,3706 11751,3871 11667,4016 11584,4160 11463,4281 11319,4364 11174,4448 11009,4492 10842,4492 10675,4492 10510,4448 10366,4364 10221,4281 10100,4160 10017,4016 9933,3871 9889,3706 9889,3539 9889,3372 9933,3207 10017,3063 10100,2918 10221,2797 10366,2714 10510,2630 10675,2586 10842,2586 11009,2586 11174,2630 11319,2714 11463,2797 11584,2918 11667,3062 11751,3207 11795,3372 11795,3539 L 11795,3539 Z"/>
    <path fill="none" stroke="rgb(169,163,163)" d="M 11795,3539 C 11795,3706 11751,3871 11667,4016 11584,4160 11463,4281 11319,4364 11174,4448 11009,4492 10842,4492 10675,4492 10510,4448 10366,4364 10221,4281 10100,4160 10017,4016 9933,3871 9889,3706 9889,3539 9889,3372 9933,3207 10017,3063 10100,2918 10221,2797 10366,2714 10510,2630 10675,2586 10842,2586 11009,2586 11174,2630 11319,2714 11463,2797 11584,2918 11667,3062 11751,3207 11795,3372 11795,3539 L 11795,3539 Z"/>
   </g>
  </g>
  <g class="com.sun.star.drawing.CustomShape">
   <g id="id8">
    <rect class="BoundingBox" stroke="none" fill="none" x="8933" y="4807" width="3817" height="2227"/>
    <path fill="rgb(169,163,163)" stroke="none" d="M 8934,5923 L 8934,5922 C 8934,5727 9021,5536 9188,5367 9355,5198 9595,5057 9884,4959 10174,4861 10502,4809 10837,4808 L 10837,4808 10837,4808 C 11171,4807 11500,4858 11790,4954 12080,5051 12321,5190 12488,5359 12656,5527 12745,5718 12745,5913 L 12748,7022 8937,7032 8934,5923 Z"/>
    <path fill="none" stroke="rgb(169,163,163)" d="M 8934,5923 L 8934,5922 C 8934,5727 9021,5536 9188,5367 9355,5198 9595,5057 9884,4959 10174,4861 10502,4809 10837,4808 L 10837,4808 10837,4808 C 11171,4807 11500,4858 11790,4954 12080,5051 12321,5190 12488,5359 12656,5527 12745,5718 12745,5913 L 12748,7022 8937,7032 8934,5923 Z"/>
   </g>
  </g>
  <g class="com.sun.star.drawing.CustomShape">
   <g id="id9">
    <rect class="BoundingBox" stroke="none" fill="none" x="8861" y="6004" width="3963" height="1105"/>
    <path fill="rgb(39,39,39)" stroke="none" d="M 10842,7032 L 8937,7032 8937,6080 12747,6080 12747,7032 10842,7032 Z"/>
    <path fill="none" stroke="rgb(39,39,39)" stroke-width="152" stroke-linejoin="round" d="M 10842,7032 L 8937,7032 8937,6080 12747,6080 12747,7032 10842,7032 Z"/>
   </g>
  </g>
  <g class="com.sun.star.drawing.CustomShape">
   <g id="id10">
    <rect class="BoundingBox" stroke="none" fill="none" x="9888" y="5760" width="1909" height="1909"/>
    <path fill="rgb(177,106,54)" stroke="none" d="M 11795,6714 C 11795,6881 11751,7046 11667,7191 11584,7335 11463,7456 11319,7539 11174,7623 11009,7667 10842,7667 10675,7667 10510,7623 10366,7539 10221,7456 10100,7335 10017,7191 9933,7046 9889,6881 9889,6714 9889,6547 9933,6382 10017,6238 10100,6093 10221,5972 10366,5889 10510,5805 10675,5761 10842,5761 11009,5761 11174,5805 11319,5889 11463,5972 11584,6093 11667,6238 11751,6382 11795,6547 11795,6714 L 11795,6714 Z"/>
    <path fill="none" stroke="rgb(177,106,54)" d="M 11795,6714 C 11795,6881 11751,7046 11667,7191 11584,7335 11463,7456 11319,7539 11174,7623 11009,7667 10842,7667 10675,7667 10510,7623 10366,7539 10221,7456 10100,7335 10017,7191 9933,7046 9889,6881 9889,6714 9889,6547 9933,6382 10017,6238 10100,6093 10221,5972 10366,5889 10510,5805 10675,5761 10842,5761 11009,5761 11174,5805 11319,5889 11463,5972 11584,6093 11667,6238 11751,6382 11795,6547 11795,6714 L 11795,6714 Z"/>
   </g>
  </g>
  <g class="com.sun.star.drawing.CustomShape">
   <g id="id11">
    <rect class="BoundingBox" stroke="none" fill="none" x="12108" y="6395" width="3817" height="2227"/>
    <path fill="rgb(169,163,163)" stroke="none" d="M 12109,7511 L 12109,7510 C 12109,7315 12196,7124 12363,6955 12530,6786 12770,6645 13059,6547 13349,6449 13677,6397 14012,6396 L 14012,6396 14012,6396 C 14346,6395 14675,6446 14965,6542 15255,6639 15496,6778 15663,6947 15831,7115 15920,7306 15920,7501 L 15923,8610 12112,8620 12109,7511 Z"/>
    <path fill="none" stroke="rgb(169,163,163)" d="M 12109,7511 L 12109,7510 C 12109,7315 12196,7124 12363,6955 12530,6786 12770,6645 13059,6547 13349,6449 13677,6397 14012,6396 L 14012,6396 14012,6396 C 14346,6395 14675,6446 14965,6542 15255,6639 15496,6778 15663,6947 15831,7115 15920,7306 15920,7501 L 15923,8610 12112,8620 12109,7511 Z"/>
   </g>
  </g>
  <g class="com.sun.star.drawing.CustomShape">
   <g id="id12">
    <rect class="BoundingBox" stroke="none" fill="none" x="12036" y="7592" width="3963" height="1105"/>
    <path fill="rgb(39,39,39)" stroke="none" d="M 14017,8620 L 12112,8620 12112,7668 15922,7668 15922,8620 14017,8620 Z"/>
    <path fill="none" stroke="rgb(39,39,39)" stroke-width="152" stroke-linejoin="round" d="M 14017,8620 L 12112,8620 12112,7668 15922,7668 15922,8620 14017,8620 Z"/>
   </g>
  </g>
  <g class="com.sun.star.drawing.CustomShape">
   <g id="id13">
    <rect class="BoundingBox" stroke="none" fill="none" x="5763" y="6395" width="3817" height="2227"/>
    <path fill="rgb(169,163,163)" stroke="none" d="M 5764,7511 L 5764,7510 C 5764,7315 5851,7124 6018,6955 6185,6786 6425,6645 6714,6547 7004,6449 7332,6397 7667,6396 L 7667,6396 7667,6396 C 8001,6395 8330,6446 8620,6542 8910,6639 9151,6778 9318,6947 9486,7115 9575,7306 9575,7501 L 9578,8610 5767,8620 5764,7511 Z"/>
    <path fill="none" stroke="rgb(169,163,163)" d="M 5764,7511 L 5764,7510 C 5764,7315 5851,7124 6018,6955 6185,6786 6425,6645 6714,6547 7004,6449 7332,6397 7667,6396 L 7667,6396 7667,6396 C 8001,6395 8330,6446 8620,6542 8910,6639 9151,6778 9318,6947 9486,7115 9575,7306 9575,7501 L 9578,8610 5767,8620 5764,7511 Z"/>
   </g>
  </g>
  <g class="com.sun.star.drawing.CustomShape">
   <g id="id14">
    <rect class="BoundingBox" stroke="none" fill="none" x="5686" y="7592" width="3963" height="1105"/>
    <path fill="rgb(39,39,39)" stroke="none" d="M 7667,8620 L 5762,8620 5762,7668 9572,7668 9572,8620 7667,8620 Z"/>
    <path fill="none" stroke="rgb(39,39,39)" stroke-width="152" stroke-linejoin="round" d="M 7667,8620 L 5762,8620 5762,7668 9572,7668 9572,8620 7667,8620 Z"/>
   </g>
  </g>
  <g class="com.sun.star.drawing.CustomShape">
   <g id="id15">
    <rect class="BoundingBox" stroke="none" fill="none" x="8933" y="7982" width="3817" height="2227"/>
    <path fill="rgb(177,106,54)" stroke="none" d="M 8934,9098 L 8934,9097 C 8934,8902 9021,8711 9188,8542 9355,8373 9595,8232 9884,8134 10174,8036 10502,7984 10837,7983 L 10837,7983 10837,7983 C 11171,7982 11500,8033 11790,8129 12080,8226 12321,8365 12488,8534 12656,8702 12745,8893 12745,9088 L 12748,10197 8937,10207 8934,9098 Z"/>
    <path fill="none" stroke="rgb(177,106,54)" d="M 8934,9098 L 8934,9097 C 8934,8902 9021,8711 9188,8542 9355,8373 9595,8232 9884,8134 10174,8036 10502,7984 10837,7983 L 10837,7983 10837,7983 C 11171,7982 11500,8033 11790,8129 12080,8226 12321,8365 12488,8534 12656,8702 12745,8893 12745,9088 L 12748,10197 8937,10207 8934,9098 Z"/>
   </g>
  </g>
  <g class="com.sun.star.drawing.CustomShape">
   <g id="id16">
    <rect class="BoundingBox" stroke="none" fill="none" x="8861" y="9179" width="3963" height="1105"/>
    <path fill="rgb(39,39,39)" stroke="none" d="M 10842,10207 L 8937,10207 8937,9255 12747,9255 12747,10207 10842,10207 Z"/>
    <path fill="none" stroke="rgb(39,39,39)" stroke-width="152" stroke-linejoin="round" d="M 10842,10207 L 8937,10207 8937,9255 12747,9255 12747,10207 10842,10207 Z"/>
   </g>
  </g>
  <g class="com.sun.star.drawing.CustomShape">
   <g id="id17">
    <rect class="BoundingBox" stroke="none" fill="none" x="7883" y="7883" width="2427" height="2428"/>
    <path fill="rgb(174,209,247)" stroke="none" d="M 10207,9097 C 10207,9292 10156,9483 10058,9652 9961,9821 9820,9962 9652,10059 9483,10157 9291,10208 9096,10208 8901,10208 8709,10157 8541,10059 8372,9962 8231,9821 8134,9652 8036,9483 7985,9292 7985,9097 7985,8901 8036,8710 8134,8541 8231,8372 8372,8231 8541,8134 8709,8036 8901,7985 9096,7985 9291,7985 9483,8036 9652,8134 9820,8231 9961,8372 10058,8541 10156,8710 10207,8901 10207,9096 L 10207,9097 Z"/>
    <path fill="none" stroke="rgb(255,255,255)" stroke-width="203" stroke-linejoin="round" d="M 10207,9097 C 10207,9292 10156,9483 10058,9652 9961,9821 9820,9962 9652,10059 9483,10157 9291,10208 9096,10208 8901,10208 8709,10157 8541,10059 8372,9962 8231,9821 8134,9652 8036,9483 7985,9292 7985,9097 7985,8901 8036,8710 8134,8541 8231,8372 8372,8231 8541,8134 8709,8036 8901,7985 9096,7985 9291,7985 9483,8036 9652,8134 9820,8231 9961,8372 10058,8541 10156,8710 10207,8901 10207,9096 L 10207,9097 Z"/>
   </g>
  </g>
  <g class="com.sun.star.drawing.LineShape">
   <g id="id18">
    <rect class="BoundingBox" stroke="none" fill="none" x="8517" y="8975" width="583" height="584"/>
    <path fill="none" stroke="rgb(52,101,164)" stroke-width="254" stroke-linejoin="round" stroke-linecap="round" d="M 8644,9102 L 8972,9431"/>
   </g>
  </g>
  <g class="com.sun.star.drawing.LineShape">
   <g id="id19">
    <rect class="BoundingBox" stroke="none" fill="none" x="8865" y="8635" width="911" height="913"/>
    <path fill="none" stroke="rgb(52,101,164)" stroke-width="254" stroke-linejoin="round" stroke-linecap="round" d="M 8992,9420 L 9648,8762"/>
   </g>
  </g>
 </g>
</svg>