<?xml version="1.0" encoding="UTF-8"?>
<!DOCTYPE svg PUBLIC "-//W3C//DTD SVG 1.1//EN" "http://www.w3.org/Graphics/SVG/1.1/DTD/svg11.dtd">
<svg version="1.2" width="115.82mm" height="128.26mm" viewBox="5862 3404 11582 12826" preserveAspectRatio="xMidYMid" fill-rule="evenodd" stroke-width="28.222" stroke-linejoin="round" xmlns="http://www.w3.org/2000/svg" xmlns:ooo="http://xml.openoffice.org/svg/export" xmlns:xlink="http://www.w3.org/1999/xlink" xmlns:presentation="http://sun.com/xmlns/staroffice/presentation" xmlns:smil="http://www.w3.org/2001/SMIL20/" xmlns:anim="urn:oasis:names:tc:opendocument:xmlns:animation:1.0" xmlns:svg="urn:oasis:names:tc:opendocument:xmlns:svg-compatible:1.0" xml:space="preserve">
 <defs class="EmbeddedBulletChars">
  <g id="bullet-char-template-57356" transform="scale(0.00048828125,-0.00048828125)">
   <path d="M 580,1141 L 1163,571 580,0 -4,571 580,1141 Z"/>
  </g>
  <g id="bullet-char-template-57354" transform="scale(0.00048828125,-0.00048828125)">
   <path d="M 8,1128 L 1137,1128 1137,0 8,0 8,1128 Z"/>
  </g>
  <g id="bullet-char-template-10146" transform="scale(0.00048828125,-0.00048828125)">
   <path d="M 174,0 L 602,739 174,1481 1456,739 174,0 Z M 1358,739 L 309,1346 659,739 1358,739 Z"/>
  </g>
  <g id="bullet-char-template-10132" transform="scale(0.00048828125,-0.00048828125)">
   <path d="M 2015,739 L 1276,0 717,0 1260,543 174,543 174,936 1260,936 717,1481 1274,1481 2015,739 Z"/>
  </g>
  <g id="bullet-char-template-10007" transform="scale(0.00048828125,-0.00048828125)">
   <path d="M 0,-2 C -7,14 -16,27 -25,37 L 356,567 C 262,823 215,952 215,954 215,979 228,992 255,992 264,992 276,990 289,987 310,991 331,999 354,1012 L 381,999 492,748 772,1049 836,1024 860,1049 C 881,1039 901,1025 922,1006 886,937 835,863 770,784 769,783 710,716 594,584 L 774,223 C 774,196 753,168 711,139 L 727,119 C 717,90 699,76 672,76 641,76 570,178 457,381 L 164,-76 C 142,-110 111,-127 72,-127 30,-127 9,-110 8,-76 1,-67 -2,-52 -2,-32 -2,-23 -1,-13 0,-2 Z"/>
  </g>
  <g id="bullet-char-template-10004" transform="scale(0.00048828125,-0.00048828125)">
   <path d="M 285,-33 C 182,-33 111,30 74,156 52,228 41,333 41,471 41,549 55,616 82,672 116,743 169,778 240,778 293,778 328,747 346,684 L 369,508 C 377,444 397,411 428,410 L 1163,1116 C 1174,1127 1196,1133 1229,1133 1271,1133 1292,1118 1292,1087 L 1292,965 C 1292,929 1282,901 1262,881 L 442,47 C 390,-6 338,-33 285,-33 Z"/>
  </g>
  <g id="bullet-char-template-9679" transform="scale(0.00048828125,-0.00048828125)">
   <path d="M 813,0 C 632,0 489,54 383,161 276,268 223,411 223,592 223,773 276,916 383,1023 489,1130 632,1184 813,1184 992,1184 1136,1130 1245,1023 1353,916 1407,772 1407,592 1407,412 1353,268 1245,161 1136,54 992,0 813,0 Z"/>
  </g>
  <g id="bullet-char-template-8226" transform="scale(0.00048828125,-0.00048828125)">
   <path d="M 346,457 C 273,457 209,483 155,535 101,586 74,649 74,723 74,796 101,859 155,911 209,963 273,989 346,989 419,989 480,963 531,910 582,859 608,796 608,723 608,648 583,586 532,535 482,483 420,457 346,457 Z"/>
  </g>
  <g id="bullet-char-template-8211" transform="scale(0.00048828125,-0.00048828125)">
   <path d="M -4,459 L 1135,459 1135,606 -4,606 -4,459 Z"/>
  </g>
  <g id="bullet-char-template-61548" transform="scale(0.00048828125,-0.00048828125)">
   <path d="M 173,740 C 173,903 231,1043 346,1159 462,1274 601,1332 765,1332 928,1332 1067,1274 1183,1159 1299,1043 1357,903 1357,740 1357,577 1299,437 1183,322 1067,206 928,148 765,148 601,148 462,206 346,322 231,437 173,577 173,740 Z"/>
  </g>
 </defs>
 <g class="Page">
  <g class="com.sun.star.drawing.CustomShape">
   <g id="id3">
    <rect class="BoundingBox" stroke="none" fill="none" x="8127" y="11862" width="6328" height="1228"/>
    <path fill="rgb(39,39,39)" stroke="none" d="M 8381,11938 L 8382,11938 C 8351,11938 8320,11946 8293,11962 8265,11978 8243,12000 8227,12028 8211,12055 8203,12086 8203,12117 L 8203,12833 8203,12833 C 8203,12864 8211,12895 8227,12923 8243,12950 8265,12972 8293,12988 8320,13004 8351,13012 8382,13012 L 14198,13012 14198,13012 C 14229,13012 14260,13004 14288,12988 14315,12972 14337,12950 14353,12923 14369,12895 14377,12864 14377,12833 L 14377,12117 14377,12117 14377,12117 C 14377,12086 14369,12055 14353,12028 14337,12000 14315,11978 14288,11962 14260,11946 14229,11938 14198,11938 L 8381,11938 Z"/>
    <path fill="none" stroke="rgb(128,128,128)" stroke-width="152" stroke-linejoin="round" d="M 8381,11938 L 8382,11938 C 8351,11938 8320,11946 8293,11962 8265,11978 8243,12000 8227,12028 8211,12055 8203,12086 8203,12117 L 8203,12833 8203,12833 C 8203,12864 8211,12895 8227,12923 8243,12950 8265,12972 8293,12988 8320,13004 8351,13012 8382,13012 L 14198,13012 14198,13012 C 14229,13012 14260,13004 14288,12988 14315,12972 14337,12950 14353,12923 14369,12895 14377,12864 14377,12833 L 14377,12117 14377,12117 14377,12117 C 14377,12086 14369,12055 14353,12028 14337,12000 14315,11978 14288,11962 14260,11946 14229,11938 14198,11938 L 8381,11938 Z"/>
   </g>
  </g>
  <g class="com.sun.star.drawing.CustomShape">
   <g id="id4">
    <rect class="BoundingBox" stroke="none" fill="none" x="10602" y="3404" width="1455" height="1011"/>
    <path fill="rgb(39,39,39)" stroke="none" d="M 10821,3480 L 10821,3480 C 10796,3480 10771,3487 10749,3499 10728,3512 10710,3530 10697,3551 10685,3573 10678,3598 10678,3623 L 10678,4195 10678,4195 C 10678,4220 10685,4245 10697,4267 10710,4288 10728,4306 10749,4319 10771,4331 10796,4338 10821,4338 L 11837,4338 11837,4338 C 11862,4338 11887,4331 11908,4319 11930,4306 11948,4288 11961,4267 11973,4245 11980,4220 11980,4195 L 11980,3623 11980,3623 11980,3623 C 11980,3598 11973,3573 11961,3551 11948,3530 11930,3512 11908,3499 11887,3487 11862,3480 11837,3480 L 10821,3480 Z"/>
    <path fill="none" stroke="rgb(128,128,128)" stroke-width="152" stroke-linejoin="round" d="M 10821,3480 L 10821,3480 C 10796,3480 10771,3487 10749,3499 10728,3512 10710,3530 10697,3551 10685,3573 10678,3598 10678,3623 L 10678,4195 10678,4195 C 10678,4220 10685,4245 10697,4267 10710,4288 10728,4306 10749,4319 10771,4331 10796,4338 10821,4338 L 11837,4338 11837,4338 C 11862,4338 11887,4331 11908,4319 11930,4306 11948,4288 11961,4267 11973,4245 11980,4220 11980,4195 L 11980,3623 11980,3623 11980,3623 C 11980,3598 11973,3573 11961,3551 11948,3530 11930,3512 11908,3499 11887,3487 11862,3480 11837,3480 L 10821,3480 Z"/>
   </g>
  </g>
  <g class="com.sun.star.drawing.CustomShape">
   <g id="id5">
    <rect class="BoundingBox" stroke="none" fill="none" x="5862" y="3857" width="10809" height="8688"/>
    <path fill="rgb(39,39,39)" stroke="none" d="M 7360,3933 L 7361,3933 C 7111,3933 6865,3999 6649,4124 6433,4248 6253,4428 6129,4644 6004,4860 5938,5106 5938,5356 L 5938,11045 5938,11046 C 5938,11295 6004,11541 6129,11757 6253,11973 6433,12153 6649,12277 6865,12402 7111,12468 7361,12468 L 15171,12468 15172,12468 C 15421,12468 15667,12402 15883,12277 16099,12153 16279,11973 16403,11757 16528,11541 16594,11295 16594,11046 L 16594,5355 16594,5356 16594,5356 C 16594,5106 16528,4860 16403,4644 16279,4428 16099,4248 15883,4124 15667,3999 15421,3933 15172,3933 L 7360,3933 Z"/>
    <path fill="none" stroke="rgb(128,128,128)" stroke-width="152" stroke-linejoin="round" d="M 7360,3933 L 7361,3933 C 7111,3933 6865,3999 6649,4124 6433,4248 6253,4428 6129,4644 6004,4860 5938,5106 5938,5356 L 5938,11045 5938,11046 C 5938,11295 6004,11541 6129,11757 6253,11973 6433,12153 6649,12277 6865,12402 7111,12468 7361,12468 L 15171,12468 15172,12468 C 15421,12468 15667,12402 15883,12277 16099,12153 16279,11973 16403,11757 16528,11541 16594,11295 16594,11046 L 16594,5355 16594,5356 16594,5356 C 16594,5106 16528,4860 16403,4644 16279,4428 16099,4248 15883,4124 15667,3999 15421,3933 15172,3933 L 7360,3933 Z"/>
   </g>
  </g>
  <g class="com.sun.star.drawing.LineShape">
   <g id="id6">
    <rect class="BoundingBox" stroke="none" fill="none" x="8207" y="12959" width="1884" height="3271"/>
    <path fill="none" stroke="rgb(128,128,128)" stroke-width="203" stroke-linejoin="round" stroke-linecap="round" d="M 9988,13061 L 8309,16127"/>
   </g>
  </g>
  <g class="com.sun.star.drawing.LineShape">
   <g id="id7">
    <rect class="BoundingBox" stroke="none" fill="none" x="12519" y="12964" width="1832" height="3100"/>
    <path fill="none" stroke="rgb(128,128,128)" stroke-width="203" stroke-linejoin="round" stroke-linecap="round" d="M 12621,13066 L 14248,15961"/>
   </g>
  </g>
  <g class="com.sun.star.drawing.CustomShape">
   <g id="id8">
    <rect class="BoundingBox" stroke="none" fill="none" x="8397" y="9682" width="747" height="1663"/>
    <path fill="rgb(255,255,255)" stroke="none" d="M 8555,9733 L 8555,9733 C 8536,9733 8518,9738 8502,9747 8485,9757 8472,9770 8462,9787 8453,9803 8448,9821 8448,9840 L 8448,11185 8448,11186 C 8448,11205 8453,11223 8462,11239 8472,11256 8485,11269 8502,11279 8518,11288 8536,11293 8555,11293 L 8983,11292 8984,11293 C 9003,11293 9021,11288 9037,11279 9054,11269 9067,11256 9077,11239 9086,11223 9091,11205 9091,11186 L 9091,9840 9091,9840 9091,9840 C 9091,9821 9086,9803 9077,9787 9067,9770 9054,9757 9037,9747 9021,9738 9003,9733 8984,9733 L 8555,9733 Z"/>
    <path fill="none" stroke="rgb(174,209,247)" stroke-width="102" stroke-linejoin="round" stroke-linecap="round" d="M 8555,9733 L 8555,9733 C 8536,9733 8518,9738 8502,9747 8485,9757 8472,9770 8462,9787 8453,9803 8448,9821 8448,9840 L 8448,11185 8448,11186 C 8448,11205 8453,11223 8462,11239 8472,11256 8485,11269 8502,11279 8518,11288 8536,11293 8555,11293 L 8983,11292 8984,11293 C 9003,11293 9021,11288 9037,11279 9054,11269 9067,11256 9077,11239 9086,11223 9091,11205 9091,11186 L 9091,9840 9091,9840 9091,9840 C 9091,9821 9086,9803 9077,9787 9067,9770 9054,9757 9037,9747 9021,9738 9003,9733 8984,9733 L 8555,9733 Z"/>
   </g>
  </g>
  <g class="com.sun.star.drawing.CustomShape">
   <g id="id9">
    <rect class="BoundingBox" stroke="none" fill="none" x="9683" y="7556" width="746" height="3789"/>
    <path fill="rgb(255,255,255)" stroke="none" d="M 9841,7607 L 9841,7607 C 9822,7607 9804,7612 9788,7621 9771,7631 9758,7644 9748,7661 9739,7677 9734,7695 9734,7714 L 9734,11185 9734,11186 C 9734,11205 9739,11223 9748,11239 9758,11256 9771,11269 9788,11279 9804,11288 9822,11293 9841,11293 L 10269,11293 10270,11293 C 10289,11293 10307,11288 10323,11279 10340,11269 10353,11256 10363,11239 10372,11223 10377,11205 10377,11186 L 10377,7714 10377,7714 10377,7714 C 10377,7695 10372,7677 10363,7661 10353,7644 10340,7631 10323,7621 10307,7612 10289,7607 10270,7607 L 9841,7607 Z"/>
    <path fill="none" stroke="rgb(174,209,247)" stroke-width="102" stroke-linejoin="round" stroke-linecap="round" d="M 9841,7607 L 9841,7607 C 9822,7607 9804,7612 9788,7621 9771,7631 9758,7644 9748,7661 9739,7677 9734,7695 9734,7714 L 9734,11185 9734,11186 C 9734,11205 9739,11223 9748,11239 9758,11256 9771,11269 9788,11279 9804,11288 9822,11293 9841,11293 L 10269,11293 10270,11293 C 10289,11293 10307,11288 10323,11279 10340,11269 10353,11256 10363,11239 10372,11223 10377,11205 10377,11186 L 10377,7714 10377,7714 10377,7714 C 10377,7695 10372,7677 10363,7661 10353,7644 10340,7631 10323,7621 10307,7612 10289,7607 10270,7607 L 9841,7607 Z"/>
   </g>
  </g>
  <g class="com.sun.star.drawing.CustomShape">
   <g id="id10">
    <rect class="BoundingBox" stroke="none" fill="none" x="10989" y="8436" width="746" height="2910"/>
    <path fill="rgb(255,255,255)" stroke="none" d="M 11147,8487 L 11147,8487 C 11128,8487 11110,8492 11094,8501 11077,8511 11064,8524 11054,8541 11045,8557 11040,8575 11040,8594 L 11040,11186 11040,11187 C 11040,11206 11045,11224 11054,11240 11064,11257 11077,11270 11094,11280 11110,11289 11128,11294 11147,11294 L 11575,11294 11576,11294 C 11595,11294 11613,11289 11629,11280 11646,11270 11659,11257 11669,11240 11678,11224 11683,11206 11683,11187 L 11683,8594 11683,8594 11683,8594 C 11683,8575 11678,8557 11669,8541 11659,8524 11646,8511 11629,8501 11613,8492 11595,8487 11576,8487 L 11147,8487 Z"/>
    <path fill="none" stroke="rgb(174,209,247)" stroke-width="102" stroke-linejoin="round" stroke-linecap="round" d="M 11147,8487 L 11147,8487 C 11128,8487 11110,8492 11094,8501 11077,8511 11064,8524 11054,8541 11045,8557 11040,8575 11040,8594 L 11040,11186 11040,11187 C 11040,11206 11045,11224 11054,11240 11064,11257 11077,11270 11094,11280 11110,11289 11128,11294 11147,11294 L 11575,11294 11576,11294 C 11595,11294 11613,11289 11629,11280 11646,11270 11659,11257 11669,11240 11678,11224 11683,11206 11683,11187 L 11683,8594 11683,8594 11683,8594 C 11683,8575 11678,8557 11669,8541 11659,8524 11646,8511 11629,8501 11613,8492 11595,8487 11576,8487 L 11147,8487 Z"/>
   </g>
  </g>
  <g class="com.sun.star.drawing.CustomShape">
   <g id="id11">
    <rect class="BoundingBox" stroke="none" fill="none" x="12302" y="9682" width="746" height="1663"/>
    <path fill="rgb(255,255,255)" stroke="none" d="M 12460,9733 L 12460,9733 C 12441,9733 12423,9738 12407,9747 12390,9757 12377,9770 12367,9787 12358,9803 12353,9821 12353,9840 L 12353,11185 12353,11186 C 12353,11205 12358,11223 12367,11239 12377,11256 12390,11269 12407,11279 12423,11288 12441,11293 12460,11293 L 12888,11292 12889,11293 C 12908,11293 12926,11288 12942,11279 12959,11269 12972,11256 12982,11239 12991,11223 12996,11205 12996,11186 L 12996,9840 12996,9840 12996,9840 C 12996,9821 12991,9803 12982,9787 12972,9770 12959,9757 12942,9747 12926,9738 12908,9733 12889,9733 L 12460,9733 Z"/>
    <path fill="none" stroke="rgb(174,209,247)" stroke-width="102" stroke-linejoin="round" stroke-linecap="round" d="M 12460,9733 L 12460,9733 C 12441,9733 12423,9738 12407,9747 12390,9757 12377,9770 12367,9787 12358,9803 12353,9821 12353,9840 L 12353,11185 12353,11186 C 12353,11205 12358,11223 12367,11239 12377,11256 12390,11269 12407,11279 12423,11288 12441,11293 12460,11293 L 12888,11292 12889,11293 C 12908,11293 12926,11288 12942,11279 12959,11269 12972,11256 12982,11239 12991,11223 12996,11205 12996,11186 L 12996,9840 12996,9840 12996,9840 C 12996,9821 12991,9803 12982,9787 12972,9770 12959,9757 12942,9747 12926,9738 12908,9733 12889,9733 L 12460,9733 Z"/>
   </g>
  </g>
  <g class="com.sun.star.drawing.CustomShape">
   <g id="id12">
    <rect class="BoundingBox" stroke="none" fill="none" x="13597" y="9003" width="746" height="2352"/>
    <path fill="rgb(255,255,255)" stroke="none" d="M 13755,9054 L 13755,9054 C 13736,9054 13718,9059 13702,9068 13685,9078 13672,9091 13662,9108 13653,9124 13648,9142 13648,9161 L 13648,11195 13648,11196 C 13648,11215 13653,11233 13662,11249 13672,11266 13685,11279 13702,11289 13718,11298 13736,11303 13755,11303 L 14183,11303 14184,11303 C 14203,11303 14221,11298 14237,11289 14254,11279 14267,11266 14277,11249 14286,11233 14291,11215 14291,11196 L 14291,9161 14291,9161 14291,9161 C 14291,9142 14286,9124 14277,9108 14267,9091 14254,9078 14237,9068 14221,9059 14203,9054 14184,9054 L 13755,9054 Z"/>
    <path fill="none" stroke="rgb(174,209,247)" stroke-width="102" stroke-linejoin="round" stroke-linecap="round" d="M 13755,9054 L 13755,9054 C 13736,9054 13718,9059 13702,9068 13685,9078 13672,9091 13662,9108 13653,9124 13648,9142 13648,9161 L 13648,11195 13648,11196 C 13648,11215 13653,11233 13662,11249 13672,11266 13685,11279 13702,11289 13718,11298 13736,11303 13755,11303 L 14183,11303 14184,11303 C 14203,11303 14221,11298 14237,11289 14254,11279 14267,11266 14277,11249 14286,11233 14291,11215 14291,11196 L 14291,9161 14291,9161 14291,9161 C 14291,9142 14286,9124 14277,9108 14267,9091 14254,9078 14237,9068 14221,9059 14203,9054 14184,9054 L 13755,9054 Z"/>
   </g>
  </g>
  <g class="com.sun.star.drawing.LineShape">
   <g id="id13">
    <rect class="BoundingBox" stroke="none" fill="none" x="8464" y="5085" width="1522" height="1762"/>
    <path fill="none" stroke="rgb(52,101,164)" stroke-width="102" stroke-linejoin="round" stroke-linecap="round" d="M 8515,6795 L 9934,5136"/>
   </g>
  </g>
  <g class="com.sun.star.drawing.LineShape">
   <g id="id14">
    <rect class="BoundingBox" stroke="none" fill="none" x="9907" y="5073" width="1547" height="1041"/>
    <path fill="none" stroke="rgb(52,101,164)" stroke-width="102" stroke-linejoin="round" stroke-linecap="round" d="M 9958,5124 L 11402,6062"/>
   </g>
  </g>
  <g class="com.sun.star.drawing.LineShape">
   <g id="id15">
    <rect class="BoundingBox" stroke="none" fill="none" x="11339" y="5987" width="1353" height="788"/>
    <path fill="none" stroke="rgb(52,101,164)" stroke-width="102" stroke-linejoin="round" stroke-linecap="round" d="M 11390,6038 L 12640,6723"/>
   </g>
  </g>
  <g class="com.sun.star.drawing.LineShape">
   <g id="id16">
    <rect class="BoundingBox" stroke="none" fill="none" x="12601" y="6179" width="1426" height="596"/>
    <path fill="none" stroke="rgb(52,101,164)" stroke-width="102" stroke-linejoin="round" stroke-linecap="round" d="M 12652,6723 L 13975,6230"/>
   </g>
  </g>
  <g class="com.sun.star.drawing.CustomShape">
   <g id="id17">
    <rect class="BoundingBox" stroke="none" fill="none" x="12239" y="8002" width="4321" height="4247"/>
    <path fill="none" stroke="rgb(199,197,197)" stroke-width="457" stroke-linejoin="round" d="M 16330,10125 C 16330,10457 16241,10784 16071,11072 15902,11360 15658,11599 15365,11765 15071,11931 14738,12019 14399,12019 14060,12019 13727,11931 13434,11765 13140,11599 12896,11360 12727,11072 12557,10784 12468,10457 12468,10125 12468,9793 12557,9466 12727,9178 12896,8890 13140,8651 13434,8485 13727,8319 14060,8231 14399,8231 14738,8231 15071,8319 15365,8485 15658,8651 15902,8890 16071,9178 16241,9466 16330,9793 16330,10125 L 16330,10125 Z"/>
   </g>
  </g>
  <g class="com.sun.star.drawing.LineShape">
   <g id="id18">
    <rect class="BoundingBox" stroke="none" fill="none" x="15077" y="11624" width="1750" height="2726"/>
    <path fill="none" stroke="rgb(199,197,197)" stroke-width="508" stroke-linejoin="round" stroke-linecap="round" d="M 15331,11878 L 16572,14095"/>
   </g>
  </g>
  <g class="com.sun.star.drawing.CustomShape">
   <g id="id19">
    <rect class="BoundingBox" stroke="none" fill="none" x="8199" y="6449" width="699" height="709"/>
    <path fill="rgb(255,255,255)" stroke="none" d="M 8846,6803 C 8846,6856 8832,6908 8806,6955 8780,7001 8742,7039 8697,7065 8652,7092 8600,7106 8548,7106 8496,7106 8444,7092 8399,7065 8354,7039 8316,7001 8290,6955 8264,6908 8250,6856 8250,6803 8250,6750 8264,6698 8290,6652 8316,6605 8354,6567 8399,6541 8444,6514 8496,6500 8548,6500 8600,6500 8652,6514 8697,6541 8742,6567 8780,6605 8806,6652 8832,6698 8846,6750 8846,6803 L 8846,6803 Z"/>
    <path fill="none" stroke="rgb(174,209,247)" stroke-width="102" stroke-linejoin="round" d="M 8846,6803 C 8846,6856 8832,6908 8806,6955 8780,7001 8742,7039 8697,7065 8652,7092 8600,7106 8548,7106 8496,7106 8444,7092 8399,7065 8354,7039 8316,7001 8290,6955 8264,6908 8250,6856 8250,6803 8250,6750 8264,6698 8290,6652 8316,6605 8354,6567 8399,6541 8444,6514 8496,6500 8548,6500 8600,6500 8652,6514 8697,6541 8742,6567 8780,6605 8806,6652 8832,6698 8846,6750 8846,6803 Z"/>
   </g>
  </g>
  <g class="com.sun.star.drawing.CustomShape">
   <g id="id20">
    <rect class="BoundingBox" stroke="none" fill="none" x="9624" y="4759" width="699" height="709"/>
    <path fill="rgb(255,255,255)" stroke="none" d="M 10271,5113 C 10271,5166 10257,5218 10231,5265 10205,5311 10167,5349 10122,5375 10077,5402 10025,5416 9973,5416 9921,5416 9869,5402 9824,5375 9779,5349 9741,5311 9715,5265 9689,5218 9675,5166 9675,5113 9675,5060 9689,5008 9715,4962 9741,4915 9779,4877 9824,4851 9869,4824 9921,4810 9973,4810 10025,4810 10077,4824 10122,4851 10167,4877 10205,4915 10231,4962 10257,5008 10271,5060 10271,5113 L 10271,5113 Z"/>
    <path fill="none" stroke="rgb(174,209,247)" stroke-width="102" stroke-linejoin="round" d="M 10271,5113 C 10271,5166 10257,5218 10231,5265 10205,5311 10167,5349 10122,5375 10077,5402 10025,5416 9973,5416 9921,5416 9869,5402 9824,5375 9779,5349 9741,5311 9715,5265 9689,5218 9675,5166 9675,5113 9675,5060 9689,5008 9715,4962 9741,4915 9779,4877 9824,4851 9869,4824 9921,4810 9973,4810 10025,4810 10077,4824 10122,4851 10167,4877 10205,4915 10231,4962 10257,5008 10271,5060 10271,5113 Z"/>
   </g>
  </g>
  <g class="com.sun.star.drawing.CustomShape">
   <g id="id21">
    <rect class="BoundingBox" stroke="none" fill="none" x="11069" y="5693" width="699" height="709"/>
    <path fill="rgb(255,255,255)" stroke="none" d="M 11716,6047 C 11716,6100 11702,6152 11676,6199 11650,6245 11612,6283 11567,6309 11522,6336 11470,6350 11418,6350 11366,6350 11314,6336 11269,6309 11224,6283 11186,6245 11160,6199 11134,6152 11120,6100 11120,6047 11120,5994 11134,5942 11160,5896 11186,5849 11224,5811 11269,5785 11314,5758 11366,5744 11418,5744 11470,5744 11522,5758 11567,5785 11612,5811 11650,5849 11676,5896 11702,5942 11716,5994 11716,6047 L 11716,6047 Z"/>
    <path fill="none" stroke="rgb(174,209,247)" stroke-width="102" stroke-linejoin="round" d="M 11716,6047 C 11716,6100 11702,6152 11676,6199 11650,6245 11612,6283 11567,6309 11522,6336 11470,6350 11418,6350 11366,6350 11314,6336 11269,6309 11224,6283 11186,6245 11160,6199 11134,6152 11120,6100 11120,6047 11120,5994 11134,5942 11160,5896 11186,5849 11224,5811 11269,5785 11314,5758 11366,5744 11418,5744 11470,5744 11522,5758 11567,5785 11612,5811 11650,5849 11676,5896 11702,5942 11716,5994 11716,6047 Z"/>
   </g>
  </g>
  <g class="com.sun.star.drawing.CustomShape">
   <g id="id22">
    <rect class="BoundingBox" stroke="none" fill="none" x="12308" y="6337" width="699" height="709"/>
    <path fill="rgb(255,255,255)" stroke="none" d="M 12955,6691 C 12955,6744 12941,6796 12915,6843 12889,6889 12851,6927 12806,6953 12761,6980 12709,6994 12657,6994 12605,6994 12553,6980 12508,6953 12463,6927 12425,6889 12399,6843 12373,6796 12359,6744 12359,6691 12359,6638 12373,6586 12399,6540 12425,6493 12463,6455 12508,6429 12553,6402 12605,6388 12657,6388 12709,6388 12761,6402 12806,6429 12851,6455 12889,6493 12915,6540 12941,6586 12955,6638 12955,6691 L 12955,6691 Z"/>
    <path fill="none" stroke="rgb(174,209,247)" stroke-width="102" stroke-linejoin="round" d="M 12955,6691 C 12955,6744 12941,6796 12915,6843 12889,6889 12851,6927 12806,6953 12761,6980 12709,6994 12657,6994 12605,6994 12553,6980 12508,6953 12463,6927 12425,6889 12399,6843 12373,6796 12359,6744 12359,6691 12359,6638 12373,6586 12399,6540 12425,6493 12463,6455 12508,6429 12553,6402 12605,6388 12657,6388 12709,6388 12761,6402 12806,6429 12851,6455 12889,6493 12915,6540 12941,6586 12955,6638 12955,6691 Z"/>
   </g>
  </g>
  <g class="com.sun.star.drawing.CustomShape">
   <g id="id23">
    <rect class="BoundingBox" stroke="none" fill="none" x="13631" y="5902" width="699" height="709"/>
    <path fill="rgb(255,255,255)" stroke="none" d="M 14278,6256 C 14278,6309 14264,6361 14238,6408 14212,6454 14174,6492 14129,6518 14084,6545 14032,6559 13980,6559 13928,6559 13876,6545 13831,6518 13786,6492 13748,6454 13722,6408 13696,6361 13682,6309 13682,6256 13682,6203 13696,6151 13722,6105 13748,6058 13786,6020 13831,5994 13876,5967 13928,5953 13980,5953 14032,5953 14084,5967 14129,5994 14174,6020 14212,6058 14238,6105 14264,6151 14278,6203 14278,6256 L 14278,6256 Z"/>
    <path fill="none" stroke="rgb(174,209,247)" stroke-width="102" stroke-linejoin="round" d="M 14278,6256 C 14278,6309 14264,6361 14238,6408 14212,6454 14174,6492 14129,6518 14084,6545 14032,6559 13980,6559 13928,6559 13876,6545 13831,6518 13786,6492 13748,6454 13722,6408 13696,6361 13682,6309 13682,6256 13682,6203 13696,6151 13722,6105 13748,6058 13786,6020 13831,5994 13876,5967 13928,5953 13980,5953 14032,5953 14084,5967 14129,5994 14174,6020 14212,6058 14238,6105 14264,6151 14278,6203 14278,6256 Z"/>
   </g>
  </g>
  <g class="com.sun.star.drawing.LineShape">
   <g id="id24">
    <rect class="BoundingBox" stroke="none" fill="none" x="15520" y="12475" width="1924" height="2901"/>
    <path fill="none" stroke="rgb(128,128,128)" stroke-width="660" stroke-linejoin="round" stroke-linecap="round" d="M 15850,12805 L 17113,15045"/>
   </g>
  </g>
  <g class="com.sun.star.drawing.EllipseShape">
   <g id="id25">
    <rect class="BoundingBox" stroke="none" fill="none" x="14875" y="8839" width="968" height="1519"/>
    <path fill="none" stroke="rgb(199,197,197)" stroke-width="152" stroke-linejoin="round" stroke-linecap="round" d="M 14951,8915 C 15039,8935 15127,8972 15211,9026 15347,9113 15468,9240 15563,9394 15657,9549 15722,9725 15750,9905 15770,10033 15771,10160 15753,10281"/>
   </g>
  </g>
 </g>
</svg>