<?xml version="1.0" encoding="UTF-8"?>
<!DOCTYPE svg PUBLIC "-//W3C//DTD SVG 1.1//EN" "http://www.w3.org/Graphics/SVG/1.1/DTD/svg11.dtd">
<svg version="1.2" width="158.5mm" height="94.63mm" viewBox="3095 2459 15850 9463" preserveAspectRatio="xMidYMid" fill-rule="evenodd" stroke-width="28.222" stroke-linejoin="round" xmlns="http://www.w3.org/2000/svg" xmlns:ooo="http://xml.openoffice.org/svg/export" xmlns:xlink="http://www.w3.org/1999/xlink" xmlns:presentation="http://sun.com/xmlns/staroffice/presentation" xmlns:smil="http://www.w3.org/2001/SMIL20/" xmlns:anim="urn:oasis:names:tc:opendocument:xmlns:animation:1.0" xmlns:svg="urn:oasis:names:tc:opendocument:xmlns:svg-compatible:1.0" xml:space="preserve">
 <defs class="EmbeddedBulletChars">
  <g id="bullet-char-template-57356" transform="scale(0.00048828125,-0.00048828125)">
   <path d="M 580,1141 L 1163,571 580,0 -4,571 580,1141 Z"/>
  </g>
  <g id="bullet-char-template-57354" transform="scale(0.00048828125,-0.00048828125)">
   <path d="M 8,1128 L 1137,1128 1137,0 8,0 8,1128 Z"/>
  </g>
  <g id="bullet-char-template-10146" transform="scale(0.00048828125,-0.00048828125)">
   <path d="M 174,0 L 602,739 174,1481 1456,739 174,0 Z M 1358,739 L 309,1346 659,739 1358,739 Z"/>
  </g>
  <g id="bullet-char-template-10132" transform="scale(0.00048828125,-0.00048828125)">
   <path d="M 2015,739 L 1276,0 717,0 1260,543 174,543 174,936 1260,936 717,1481 1274,1481 2015,739 Z"/>
  </g>
  <g id="bullet-char-template-10007" transform="scale(0.00048828125,-0.00048828125)">
   <path d="M 0,-2 C -7,14 -16,27 -25,37 L 356,567 C 262,823 215,952 215,954 215,979 228,992 255,992 264,992 276,990 289,987 310,991 331,999 354,1012 L 381,999 492,748 772,1049 836,1024 860,1049 C 881,1039 901,1025 922,1006 886,937 835,863 770,784 769,783 710,716 594,584 L 774,223 C 774,196 753,168 711,139 L 727,119 C 717,90 699,76 672,76 641,76 570,178 457,381 L 164,-76 C 142,-110 111,-127 72,-127 30,-127 9,-110 8,-76 1,-67 -2,-52 -2,-32 -2,-23 -1,-13 0,-2 Z"/>
  </g>
  <g id="bullet-char-template-10004" transform="scale(0.00048828125,-0.00048828125)">
   <path d="M 285,-33 C 182,-33 111,30 74,156 52,228 41,333 41,471 41,549 55,616 82,672 116,743 169,778 240,778 293,778 328,747 346,684 L 369,508 C 377,444 397,411 428,410 L 1163,1116 C 1174,1127 1196,1133 1229,1133 1271,1133 1292,1118 1292,1087 L 1292,965 C 1292,929 1282,901 1262,881 L 442,47 C 390,-6 338,-33 285,-33 Z"/>
  </g>
  <g id="bullet-char-template-9679" transform="scale(0.00048828125,-0.00048828125)">
   <path d="M 813,0 C 632,0 489,54 383,161 276,268 223,411 223,592 223,773 276,916 383,1023 489,1130 632,1184 813,1184 992,1184 1136,1130 1245,1023 1353,916 1407,772 1407,592 1407,412 1353,268 1245,161 1136,54 992,0 813,0 Z"/>
  </g>
  <g id="bullet-char-template-8226" transform="scale(0.00048828125,-0.00048828125)">
   <path d="M 346,457 C 273,457 209,483 155,535 101,586 74,649 74,723 74,796 101,859 155,911 209,963 273,989 346,989 419,989 480,963 531,910 582,859 608,796 608,723 608,648 583,586 532,535 482,483 420,457 346,457 Z"/>
  </g>
  <g id="bullet-char-template-8211" transform="scale(0.00048828125,-0.00048828125)">
   <path d="M -4,459 L 1135,459 1135,606 -4,606 -4,459 Z"/>
  </g>
  <g id="bullet-char-template-61548" transform="scale(0.00048828125,-0.00048828125)">
   <path d="M 173,740 C 173,903 231,1043 346,1159 462,1274 601,1332 765,1332 928,1332 1067,1274 1183,1159 1299,1043 1357,903 1357,740 1357,577 1299,437 1183,322 1067,206 928,148 765,148 601,148 462,206 346,322 231,437 173,577 173,740 Z"/>
  </g>
 </defs>
 <g class="Page">
  <g class="com.sun.star.drawing.CustomShape">
   <g id="id3">
    <rect class="BoundingBox" stroke="none" fill="none" x="3095" y="2459" width="15850" height="9463"/>
    <path fill="rgb(39,39,39)" stroke="none" d="M 4756,2586 L 4757,2586 C 4487,2586 4223,2657 3989,2792 3756,2926 3562,3120 3428,3353 3293,3587 3222,3851 3222,4121 L 3222,10259 3222,10259 C 3222,10529 3293,10793 3428,11027 3562,11260 3756,11454 3989,11588 4223,11723 4487,11794 4757,11794 L 17282,11794 17282,11794 C 17552,11794 17816,11723 18050,11588 18283,11454 18477,11260 18611,11027 18746,10793 18817,10529 18817,10259 L 18816,4120 18817,4121 18817,4121 C 18817,3851 18746,3587 18611,3353 18477,3120 18283,2926 18050,2792 17816,2657 17552,2586 17282,2586 L 4756,2586 Z"/>
    <path fill="none" stroke="rgb(169,163,163)" stroke-width="254" stroke-linejoin="round" d="M 4756,2586 L 4757,2586 C 4487,2586 4223,2657 3989,2792 3756,2926 3562,3120 3428,3353 3293,3587 3222,3851 3222,4121 L 3222,10259 3222,10259 C 3222,10529 3293,10793 3428,11027 3562,11260 3756,11454 3989,11588 4223,11723 4487,11794 4757,11794 L 17282,11794 17282,11794 C 17552,11794 17816,11723 18050,11588 18283,11454 18477,11260 18611,11027 18746,10793 18817,10529 18817,10259 L 18816,4120 18817,4121 18817,4121 C 18817,3851 18746,3587 18611,3353 18477,3120 18283,2926 18050,2792 17816,2657 17552,2586 17282,2586 L 4756,2586 Z"/>
   </g>
  </g>
  <g class="com.sun.star.drawing.CustomShape">
   <g id="id4">
    <rect class="BoundingBox" stroke="none" fill="none" x="5760" y="3855" width="1909" height="1909"/>
    <path fill="rgb(169,163,163)" stroke="none" d="M 7667,4809 C 7667,4976 7623,5141 7539,5286 7456,5430 7335,5551 7191,5634 7046,5718 6881,5762 6714,5762 6547,5762 6382,5718 6238,5634 6093,5551 5972,5430 5889,5286 5805,5141 5761,4976 5761,4809 5761,4642 5805,4477 5889,4333 5972,4188 6093,4067 6238,3984 6382,3900 6547,3856 6714,3856 6881,3856 7046,3900 7191,3984 7335,4067 7456,4188 7539,4332 7623,4477 7667,4642 7667,4809 L 7667,4809 Z"/>
    <path fill="none" stroke="rgb(169,163,163)" d="M 7667,4809 C 7667,4976 7623,5141 7539,5286 7456,5430 7335,5551 7191,5634 7046,5718 6881,5762 6714,5762 6547,5762 6382,5718 6238,5634 6093,5551 5972,5430 5889,5286 5805,5141 5761,4976 5761,4809 5761,4642 5805,4477 5889,4333 5972,4188 6093,4067 6238,3984 6382,3900 6547,3856 6714,3856 6881,3856 7046,3900 7191,3984 7335,4067 7456,4188 7539,4332 7623,4477 7667,4642 7667,4809 L 7667,4809 Z"/>
   </g>
  </g>
  <g class="com.sun.star.drawing.CustomShape">
   <g id="id5">
    <rect class="BoundingBox" stroke="none" fill="none" x="4811" y="6082" width="3817" height="2227"/>
    <path fill="rgb(169,163,163)" stroke="none" d="M 4812,7198 L 4812,7197 C 4812,7002 4899,6811 5066,6642 5233,6473 5473,6332 5762,6234 6052,6136 6380,6084 6715,6083 L 6715,6083 6715,6083 C 7049,6082 7378,6133 7668,6229 7958,6326 8199,6465 8366,6634 8534,6802 8623,6993 8623,7188 L 8626,8297 4815,8307 4812,7198 Z"/>
    <path fill="none" stroke="rgb(169,163,163)" d="M 4812,7198 L 4812,7197 C 4812,7002 4899,6811 5066,6642 5233,6473 5473,6332 5762,6234 6052,6136 6380,6084 6715,6083 L 6715,6083 6715,6083 C 7049,6082 7378,6133 7668,6229 7958,6326 8199,6465 8366,6634 8534,6802 8623,6993 8623,7188 L 8626,8297 4815,8307 4812,7198 Z"/>
   </g>
  </g>
  <g class="com.sun.star.drawing.CustomShape">
   <g id="id6">
    <rect class="BoundingBox" stroke="none" fill="none" x="4734" y="7274" width="3963" height="1105"/>
    <path fill="rgb(39,39,39)" stroke="none" d="M 6715,8302 L 4810,8302 4810,7350 8620,7350 8620,8302 6715,8302 Z"/>
    <path fill="none" stroke="rgb(39,39,39)" stroke-width="152" stroke-linejoin="round" d="M 6715,8302 L 4810,8302 4810,7350 8620,7350 8620,8302 6715,8302 Z"/>
   </g>
  </g>
  <g class="com.sun.star.drawing.CustomShape">
   <g id="id7">
    <rect class="BoundingBox" stroke="none" fill="none" x="9888" y="4173" width="3179" height="321"/>
    <path fill="rgb(169,163,163)" stroke="none" d="M 9942,4174 L 9942,4174 C 9933,4174 9924,4176 9916,4181 9907,4186 9901,4192 9896,4201 9891,4209 9889,4218 9889,4227 L 9889,4439 9889,4439 C 9889,4448 9891,4457 9896,4466 9901,4474 9907,4480 9916,4485 9924,4490 9933,4492 9942,4492 L 13012,4492 13012,4492 C 13021,4492 13030,4490 13039,4485 13047,4480 13053,4474 13058,4466 13063,4457 13065,4448 13065,4439 L 13065,4227 13065,4227 13065,4227 C 13065,4218 13063,4209 13058,4201 13053,4192 13047,4186 13039,4181 13030,4176 13021,4174 13012,4174 L 9942,4174 Z"/>
    <path fill="none" stroke="rgb(169,163,163)" d="M 9942,4174 L 9942,4174 C 9933,4174 9924,4176 9916,4181 9907,4186 9901,4192 9896,4201 9891,4209 9889,4218 9889,4227 L 9889,4439 9889,4439 C 9889,4448 9891,4457 9896,4466 9901,4474 9907,4480 9916,4485 9924,4490 9933,4492 9942,4492 L 13012,4492 13012,4492 C 13021,4492 13030,4490 13039,4485 13047,4480 13053,4474 13058,4466 13063,4457 13065,4448 13065,4439 L 13065,4227 13065,4227 13065,4227 C 13065,4218 13063,4209 13058,4201 13053,4192 13047,4186 13039,4181 13030,4176 13021,4174 13012,4174 L 9942,4174 Z"/>
   </g>
  </g>
  <g class="com.sun.star.drawing.CustomShape">
   <g id="id8">
    <rect class="BoundingBox" stroke="none" fill="none" x="9889" y="5760" width="6354" height="321"/>
    <path fill="rgb(169,163,163)" stroke="none" d="M 9943,5761 L 9943,5761 C 9934,5761 9925,5763 9917,5768 9908,5773 9902,5779 9897,5788 9892,5796 9890,5805 9890,5814 L 9890,6026 9890,6026 C 9890,6035 9892,6044 9897,6053 9902,6061 9908,6067 9917,6072 9925,6077 9934,6079 9943,6079 L 16188,6079 16188,6079 C 16197,6079 16206,6077 16215,6072 16223,6067 16229,6061 16234,6053 16239,6044 16241,6035 16241,6026 L 16241,5814 16241,5814 16241,5814 C 16241,5805 16239,5796 16234,5788 16229,5779 16223,5773 16215,5768 16206,5763 16197,5761 16188,5761 L 9943,5761 Z"/>
    <path fill="none" stroke="rgb(169,163,163)" d="M 9943,5761 L 9943,5761 C 9934,5761 9925,5763 9917,5768 9908,5773 9902,5779 9897,5788 9892,5796 9890,5805 9890,5814 L 9890,6026 9890,6026 C 9890,6035 9892,6044 9897,6053 9902,6061 9908,6067 9917,6072 9925,6077 9934,6079 9943,6079 L 16188,6079 16188,6079 C 16197,6079 16206,6077 16215,6072 16223,6067 16229,6061 16234,6053 16239,6044 16241,6035 16241,6026 L 16241,5814 16241,5814 16241,5814 C 16241,5805 16239,5796 16234,5788 16229,5779 16223,5773 16215,5768 16206,5763 16197,5761 16188,5761 L 9943,5761 Z"/>
   </g>
  </g>
  <g class="com.sun.star.drawing.CustomShape">
   <g id="id9">
    <rect class="BoundingBox" stroke="none" fill="none" x="9889" y="7348" width="6354" height="321"/>
    <path fill="rgb(169,163,163)" stroke="none" d="M 9943,7349 L 9943,7349 C 9934,7349 9925,7351 9917,7356 9908,7361 9902,7367 9897,7376 9892,7384 9890,7393 9890,7402 L 9890,7614 9890,7614 C 9890,7623 9892,7632 9897,7641 9902,7649 9908,7655 9917,7660 9925,7665 9934,7667 9943,7667 L 16188,7667 16188,7667 C 16197,7667 16206,7665 16215,7660 16223,7655 16229,7649 16234,7641 16239,7632 16241,7623 16241,7614 L 16241,7402 16241,7402 16241,7402 C 16241,7393 16239,7384 16234,7376 16229,7367 16223,7361 16215,7356 16206,7351 16197,7349 16188,7349 L 9943,7349 Z"/>
    <path fill="none" stroke="rgb(169,163,163)" d="M 9943,7349 L 9943,7349 C 9934,7349 9925,7351 9917,7356 9908,7361 9902,7367 9897,7376 9892,7384 9890,7393 9890,7402 L 9890,7614 9890,7614 C 9890,7623 9892,7632 9897,7641 9902,7649 9908,7655 9917,7660 9925,7665 9934,7667 9943,7667 L 16188,7667 16188,7667 C 16197,7667 16206,7665 16215,7660 16223,7655 16229,7649 16234,7641 16239,7632 16241,7623 16241,7614 L 16241,7402 16241,7402 16241,7402 C 16241,7393 16239,7384 16234,7376 16229,7367 16223,7361 16215,7356 16206,7351 16197,7349 16188,7349 L 9943,7349 Z"/>
   </g>
  </g>
  <g class="com.sun.star.drawing.CustomShape">
   <g id="id10">
    <rect class="BoundingBox" stroke="none" fill="none" x="9890" y="7348" width="6354" height="321"/>
    <path fill="rgb(169,163,163)" stroke="none" d="M 9944,7349 L 9944,7349 C 9935,7349 9926,7351 9918,7356 9909,7361 9903,7367 9898,7376 9893,7384 9891,7393 9891,7402 L 9891,7614 9891,7614 C 9891,7623 9893,7632 9898,7641 9903,7649 9909,7655 9918,7660 9926,7665 9935,7667 9944,7667 L 16189,7667 16189,7667 C 16198,7667 16207,7665 16216,7660 16224,7655 16230,7649 16235,7641 16240,7632 16242,7623 16242,7614 L 16242,7402 16242,7402 16242,7402 C 16242,7393 16240,7384 16235,7376 16230,7367 16224,7361 16216,7356 16207,7351 16198,7349 16189,7349 L 9944,7349 Z"/>
    <path fill="none" stroke="rgb(169,163,163)" d="M 9944,7349 L 9944,7349 C 9935,7349 9926,7351 9918,7356 9909,7361 9903,7367 9898,7376 9893,7384 9891,7393 9891,7402 L 9891,7614 9891,7614 C 9891,7623 9893,7632 9898,7641 9903,7649 9909,7655 9918,7660 9926,7665 9935,7667 9944,7667 L 16189,7667 16189,7667 C 16198,7667 16207,7665 16216,7660 16224,7655 16230,7649 16235,7641 16240,7632 16242,7623 16242,7614 L 16242,7402 16242,7402 16242,7402 C 16242,7393 16240,7384 16235,7376 16230,7367 16224,7361 16216,7356 16207,7351 16198,7349 16189,7349 L 9944,7349 Z"/>
   </g>
  </g>
  <g class="com.sun.star.drawing.CustomShape">
   <g id="id11">
    <rect class="BoundingBox" stroke="none" fill="none" x="4809" y="8936" width="11434" height="321"/>
    <path fill="rgb(169,163,163)" stroke="none" d="M 4863,8937 L 4863,8937 C 4854,8937 4845,8939 4837,8944 4828,8949 4822,8955 4817,8964 4812,8972 4810,8981 4810,8990 L 4810,9202 4810,9202 C 4810,9211 4812,9220 4817,9229 4822,9237 4828,9243 4837,9248 4845,9253 4854,9255 4863,9255 L 16187,9255 16188,9255 C 16197,9255 16206,9253 16214,9248 16223,9243 16229,9237 16234,9229 16239,9220 16241,9211 16241,9202 L 16240,8990 16241,8990 16241,8990 C 16241,8981 16239,8972 16234,8964 16229,8955 16223,8949 16214,8944 16206,8939 16197,8937 16188,8937 L 4863,8937 Z"/>
    <path fill="none" stroke="rgb(169,163,163)" d="M 4863,8937 L 4863,8937 C 4854,8937 4845,8939 4837,8944 4828,8949 4822,8955 4817,8964 4812,8972 4810,8981 4810,8990 L 4810,9202 4810,9202 C 4810,9211 4812,9220 4817,9229 4822,9237 4828,9243 4837,9248 4845,9253 4854,9255 4863,9255 L 16187,9255 16188,9255 C 16197,9255 16206,9253 16214,9248 16223,9243 16229,9237 16234,9229 16239,9220 16241,9211 16241,9202 L 16240,8990 16241,8990 16241,8990 C 16241,8981 16239,8972 16234,8964 16229,8955 16223,8949 16214,8944 16206,8939 16197,8937 16188,8937 L 4863,8937 Z"/>
   </g>
  </g>
 </g>
</svg>